<svg width="60" height="55" viewBox="0 0 60 55" fill="none" xmlns="http://www.w3.org/2000/svg">
<path d="M2.384e-07 17.1999C-0.000745301 12.8509 1.74716 8.6842 4.85044 5.63734C7.95373 2.59048 12.1518 0.919315 16.5 0.999852C21.652 0.972492 26.568 3.15738 30 6.99985C33.432 3.15738 38.348 0.972492 43.5 0.999852C47.8482 0.919315 52.0463 2.59048 55.1496 5.63734C58.2528 8.6842 60.0007 12.8509 60 17.1999C60 33.2679 40.863 45.3998 30 54.9999C19.161 45.3189 2.384e-07 33.2799 2.384e-07 17.1999Z" fill="url(#paint0_linear_1_125)"/>
<defs>
<linearGradient id="paint0_linear_1_125" x1="60.625" y1="27.9985" x2="1.61154e-08" y2="27.9985" gradientUnits="userSpaceOnUse">
<stop stop-color="#D71489"/>
<stop offset="1" stop-color="#004788"/>
</linearGradient>
</defs>
</svg>
